<?xml version="1.0" encoding="utf-8"?>
<!-- Generator: Adobe Illustrator 19.1.0, SVG Export Plug-In . SVG Version: 6.00 Build 0)  -->
<!DOCTYPE svg PUBLIC "-//W3C//DTD SVG 1.1//EN" "http://www.w3.org/Graphics/SVG/1.1/DTD/svg11.dtd">
<svg version="1.1" id="Layer_1" xmlns="http://www.w3.org/2000/svg" xmlns:xlink="http://www.w3.org/1999/xlink" x="0px" y="0px"
	 viewBox="0 0 259.4 106.5" enable-background="new 0 0 259.4 106.5" xml:space="preserve">
<metadata><?xpacket begin="﻿" id="W5M0MpCehiHzreSzNTczkc9d"?>
<x:xmpmeta xmlns:x="adobe:ns:meta/" x:xmptk="Adobe XMP Core 5.6-c067 79.157747, 2015/03/30-23:40:42        ">
   <rdf:RDF xmlns:rdf="http://www.w3.org/1999/02/22-rdf-syntax-ns#">
      <rdf:Description rdf:about=""/>
   </rdf:RDF>
</x:xmpmeta>
                                                                                                    
                                                                                                    
                                                                                                    
                                                                                                    
                                                                                                    
                                                                                                    
                                                                                                    
                                                                                                    
                                                                                                    
                                                                                                    
                                                                                                    
                                                                                                    
                                                                                                    
                                                                                                    
                                                                                                    
                                                                                                    
                                                                                                    
                                                                                                    
                                                                                                    
                                                                                                    
                           
<?xpacket end="w"?></metadata>
<g>
	<rect x="1.7" y="1.6" fill="none" stroke="#CB2027" stroke-width="2.813" stroke-miterlimit="10" width="97.7" height="103"/>
	<path fill-rule="evenodd" clip-rule="evenodd" fill="none" d="M74.3,88.6h2.4V33.1c0-3.6,0.2-6.2,0.6-7.9c0.4-1.7,1.1-3.2,2.2-4.3
		c2-2,4.7-3.1,8.2-3.1v-1.2H63.5v1.2c2,0.1,3.6,0.4,4.9,0.8c1.2,0.5,2.4,1.2,3.3,2.2c1.1,1.1,1.8,2.6,2.2,4.3c0.4,1.7,0.6,4.4,0.6,8
		v38.1L31.9,16.6H11.7v1.2c2,0.1,3.7,0.4,4.9,0.8c1.2,0.5,2.3,1.2,3.3,2.2c1.1,1.1,1.8,2.6,2.2,4.3c0.4,1.7,0.6,4.4,0.6,7.9v38.9
		c0,3.6-0.2,6.3-0.6,8c-0.4,1.7-1.1,3.2-2.2,4.3c-1,1-2.1,1.8-3.3,2.2c-1.2,0.5-2.9,0.7-4.9,0.8v1.2h24.2v-1.2
		c-2-0.1-3.6-0.4-4.9-0.8c-1.2-0.5-2.4-1.2-3.3-2.2c-1.1-1.1-1.8-2.5-2.2-4.3c-0.4-1.7-0.6-4.4-0.6-8V26.2L74.3,88.6z"/>
	<path fill-rule="evenodd" clip-rule="evenodd" fill="#CB2027" d="M209.9,88.3V86h-3.5v-6.2h2.4v-2.2h-2.4v-5.7h3.5v-2.3H204v18.8
		H209.9z M198.6,88.3V69.5h-2.1v11.9l-0.7-2.8l-2.3-9h-2.2v18.8h2.2V76.5l0.7,2.8l2.6,9H198.6z M183.4,88.3h2.4V69.5h-2.4V88.3z
		 M178.3,70.5v-1h-6.4v2.4h3.8l-4,15.4v1h6.4V86h-3.8L178.3,70.5z M163.9,82.4h-1.6l0.9-8.1L163.9,82.4z M167,88.3l-2.4-18.8h-2.6
		l-2.4,18.8h2.2l0.4-3.6h2.1l0.3,3.6H167z M154.5,88.3V79h-3.4v2h1.1v4c0,0.7-0.4,1.2-1.2,1.2c-0.7,0-1.2-0.5-1.2-1.2V72.8
		c0-0.7,0.4-1.2,1.1-1.2c0.8,0,1.2,0.5,1.2,1.2V76h2.2v-3c0-2.1-1.3-3.8-3.4-3.8c-2.1,0-3.5,1.7-3.5,3.8v11.8c0,2.4,1.3,3.8,3.2,3.8
		c1,0,1.8-0.5,2.2-1.3l0.4,1H154.5z M139.7,82.4h-1.6l0.9-8.1L139.7,82.4z M142.7,88.3l-2.4-18.8h-2.6l-2.4,18.8h2.2l0.4-3.6h2.1
		l0.3,3.6H142.7z M130.2,88.3V69.5h-3.2l-1.3,9.5l-0.4,3.8l-0.4-3.8l-1.3-9.5h-3.3v18.8h2.1V74l0.4,3.8l1.4,10.5h1.8l1.5-10.5
		l0.4-3.8v14.3H130.2z M259.4,59.4V40.6h-2.1v11.9l-0.7-2.8l-2.3-9h-2.2v18.8h2.2V47.6l0.7,2.8l2.6,9H259.4z M244.1,48.1
		c0,0.8-0.3,1.2-0.9,1.2h-1v-6.3h1.2c0.5,0,0.8,0.3,0.8,1.1V48.1z M247,59.5v-0.7c-0.3-0.5-0.4-1.1-0.4-1.9v-4.2
		c0-1.1-0.5-2-1.5-2.4c0.9-0.5,1.4-1.3,1.4-2.4v-4c0-2.5-1.5-3.3-3-3.3h-3.7v18.8h2.4v-8.1h1.1c0.6,0,1,0.5,1,1.2V57
		c0,1.4,0.4,2.5,1.2,2.5H247z M234.6,59.4v-2.3h-3.5v-6.2h2.4v-2.2h-2.4v-5.7h3.5v-2.3h-5.8v18.8H234.6z M223.7,43v-2.4h-6.9V43h2.3
		v16.4h2.4V43H223.7z M209.5,49.2c-1.4-2.1-2.1-3.1-2.1-5.2c0-0.9,0.5-1.4,1.2-1.4c0.7,0,1.1,0.6,1.1,1.5v2.2h2.2v-2.1
		c0-2.4-1.3-3.8-3.3-3.8c-2.4,0-3.5,1.8-3.5,4.2c0,2.2,1.5,4.7,2.6,6.4c1.3,1.9,1.9,3.3,1.9,5.1c0,0.9-0.4,1.5-1.3,1.5
		c-0.8,0-1.2-0.6-1.2-1.6v-2.1H205v2c0,2.4,1.3,3.8,3.5,3.8c1.8,0,3.5-1.2,3.5-4.1C212,53.4,210.9,51.3,209.5,49.2z M197.3,53.5
		h-1.6l0.9-8.1L197.3,53.5z M200.3,59.4l-2.4-18.8h-2.6l-2.4,18.8h2.2l0.4-3.6h2.1l0.3,3.6H200.3z M188,59.4v-2.3h-3.5v-6.2h2.4
		v-2.2h-2.4v-5.7h3.5v-2.3h-5.8v18.8H188z M176.7,59.4V40.6h-2.4v8.3H172v-8.3h-2.4v18.8h2.4v-8.1h2.3v8.1H176.7z M164.5,43v-2.4
		h-6.9V43h2.3v16.4h2.4V43H164.5z M150.3,48.1c0,0.8-0.3,1.2-0.9,1.2h-1v-6.3h1.2c0.5,0,0.8,0.3,0.8,1.1V48.1z M153.1,59.5v-0.7
		c-0.3-0.5-0.4-1.1-0.4-1.9v-4.2c0-1.1-0.5-2-1.5-2.4c0.9-0.5,1.4-1.3,1.4-2.4v-4c0-2.5-1.5-3.3-3-3.3h-3.7v18.8h2.4v-8.1h1.1
		c0.6,0,1,0.5,1,1.2V57c0,1.4,0.4,2.5,1.2,2.5H153.1z M138.2,56.1c0,0.7-0.4,1.2-1.1,1.2c-0.7,0-1.1-0.5-1.1-1.2V43.9
		c0-0.7,0.4-1.2,1.1-1.2c0.7,0,1.1,0.5,1.1,1.2V56.1z M140.6,55.9V44.2c0-2.2-1.5-3.8-3.5-3.8c-2.1,0-3.5,1.6-3.5,3.8v11.7
		c0,2.3,1.5,3.8,3.5,3.8C139.1,59.7,140.6,58.1,140.6,55.9z M128.2,59.4V40.6H126v11.9l-0.7-2.8l-2.3-9h-2.2v18.8h2.2V47.6l0.7,2.8
		l2.6,9H128.2z"/>
	<rect x="1.7" y="1.6" fill="none" stroke="#CB2027" stroke-width="2.813" stroke-miterlimit="10" width="97.7" height="103"/>
	<path fill-rule="evenodd" clip-rule="evenodd" fill="#CB2027" d="M74.3,88.6h2.4V33.1c0-3.6,0.2-6.2,0.6-7.9
		c0.4-1.7,1.1-3.2,2.2-4.3c2-2,4.7-3.1,8.2-3.1v-1.2H63.5v1.2c2,0.1,3.6,0.4,4.9,0.8c1.2,0.5,2.4,1.2,3.3,2.2
		c1.1,1.1,1.8,2.6,2.2,4.3c0.4,1.7,0.6,4.4,0.6,8v38.1L31.9,16.6H11.7v1.2c2,0.1,3.7,0.4,4.9,0.8c1.2,0.5,2.3,1.2,3.3,2.2
		c1.1,1.1,1.8,2.6,2.2,4.3c0.4,1.7,0.6,4.4,0.6,7.9v38.9c0,3.6-0.2,6.3-0.6,8c-0.4,1.7-1.1,3.2-2.2,4.3c-1,1-2.1,1.8-3.3,2.2
		c-1.2,0.5-2.9,0.7-4.9,0.8v1.2h24.2v-1.2c-2-0.1-3.6-0.4-4.9-0.8c-1.2-0.5-2.4-1.2-3.3-2.2c-1.1-1.1-1.8-2.5-2.2-4.3
		c-0.4-1.7-0.6-4.4-0.6-8V26.2L74.3,88.6z"/>
</g>
</svg>
