<?xml version="1.0" encoding="UTF-8"?>
<svg viewBox="0 0 1254 596" preserveAspectRatio="xMidYMid meet" version="1.1" xmlns="http://www.w3.org/2000/svg" xmlns:xlink="http://www.w3.org/1999/xlink">
    <!-- Generator: Sketch 45.2 (43514) - http://www.bohemiancoding.com/sketch -->
    <title>Slice 1</title>
    <desc>Created with Sketch.</desc>
    <defs></defs>
    <g id="Page-1" stroke="none" stroke-width="1" fill="none" fill-rule="evenodd">
        <g id="Group-8" transform="translate(1.914260, 2.535761)">
            <polygon id="Stroke-1" stroke="#CC0000" stroke-width="0.8128125" points="0 588.786341 531.269193 588.786341 531.269193 1.08713039e-13 0 1.08713039e-13"></polygon>
            <path d="M425.859999,519.427997 L439.900297,519.427997 L439.900297,174.808803 C439.900297,152.752362 441.094897,136.317677 443.488706,125.507166 C445.876754,114.696656 450.299194,105.800784 456.749114,98.8086643 C468.395603,86.1451998 484.618897,79.8086295 505.4213,79.8086295 L505.4213,72.2746543 L361.586587,72.2746543 L361.586587,79.8086295 C373.442736,80.4641785 383.061745,82.2143249 390.44707,85.0506023 C397.827788,87.8905082 404.434377,92.476932 410.259925,98.8086643 C416.704085,105.800784 421.126525,114.645857 423.520334,125.342674 C425.908382,136.045539 427.107591,152.644717 427.107591,175.135368 L427.107591,411.651875 L173.759019,72.2746543 L53.6377551,72.2746543 L53.6377551,79.8086295 C65.6978037,80.4641785 75.4239467,82.2143249 82.8104241,85.0506023 C90.1911416,87.8905082 96.6940525,92.476932 102.309941,98.8086643 C108.755253,105.800784 113.176541,114.696656 115.57035,125.507166 C117.95955,136.317677 119.158759,152.752362 119.158759,174.808803 L119.158759,416.566074 C119.158759,438.841434 117.95955,455.384975 115.57035,466.195485 C113.176541,477.005996 108.755253,485.906706 102.309941,492.893987 C96.4843927,499.230557 89.8789558,503.816981 82.4982383,506.652049 C75.1117609,509.493165 65.4939038,511.238473 53.6377551,511.894022 L53.6377551,519.427997 L197.472468,519.427997 L197.472468,511.894022 C185.61632,511.238473 175.992703,509.493165 168.611985,506.652049 C161.225508,503.816981 154.620071,499.230557 148.79913,492.893987 C142.34921,485.906706 137.927922,477.061633 135.538722,466.358768 C133.144913,455.66195 131.950313,439.061563 131.950313,416.566074 L131.950313,131.566761 L425.859999,519.427997 Z" id="Fill-3" fill="#CC0000"></path>
        </g>
        <path d="M649.775293,377.661102 L649.775293,286.730384 L639.951286,286.730384 L639.951286,344.07408 L636.802566,330.420819 L626.222866,286.730384 L615.895064,286.730384 L615.895064,377.661102 L625.84502,377.661102 L625.84502,320.590471 L629.245637,334.1072 L641.084825,377.661102 L649.775293,377.661102 Z M706.752766,360.457993 L706.752766,303.933493 C706.752766,293.147417 699.95153,285.365058 690.507579,285.365058 C681.061419,285.365058 674.260183,293.147417 674.260183,303.933493 L674.260183,360.457993 C674.260183,371.380602 681.061419,379.026428 690.507579,379.026428 C699.95153,379.026428 706.752766,371.380602 706.752766,360.457993 L706.752766,360.457993 Z M695.67148,361.550254 C695.67148,365.100102 693.780039,367.421157 690.507579,367.421157 C687.23291,367.421157 685.469627,365.100102 685.469627,361.550254 L685.469627,302.841232 C685.469627,299.427917 687.23291,296.97033 690.507579,296.97033 C693.780039,296.97033 695.67148,299.427917 695.67148,302.841232 L695.67148,361.550254 Z M764.410804,378.0707 L764.410804,374.657385 C763.153525,372.33633 762.521572,369.469146 762.521572,365.373167 L762.521572,345.166341 C762.521572,339.841569 760.128544,335.745591 755.848495,333.561069 C760.128544,331.376548 762.269674,327.417102 762.269674,321.955797 L762.269674,302.841232 C762.269674,290.962895 755.596597,286.730384 748.415305,286.730384 L731.414426,286.730384 L731.414426,377.661102 L742.495711,377.661102 L742.495711,338.749308 L747.409925,338.749308 C750.304538,338.749308 751.815923,341.206895 751.815923,344.347145 L751.815923,366.05583 C751.815923,372.609396 753.453258,378.0707 757.48362,378.0707 L764.410804,378.0707 Z M751.312128,322.774993 C751.312128,326.597906 749.928901,328.37283 747.281766,328.37283 L742.495711,328.37283 L742.495711,297.789525 L747.785561,297.789525 C750.178589,297.789525 751.312128,299.427917 751.312128,302.977765 L751.312128,322.774993 Z M816.805508,298.335656 L816.805508,286.730384 L785.318306,286.730384 L785.318306,298.335656 L795.772057,298.335656 L795.772057,377.661102 L806.729603,377.661102 L806.729603,298.335656 L816.805508,298.335656 Z M872.903548,377.661102 L872.903548,286.730384 L861.820053,286.730384 L861.820053,327.007504 L851.240354,327.007504 L851.240354,286.730384 L840.156859,286.730384 L840.156859,377.661102 L851.240354,377.661102 L851.240354,338.612776 L861.820053,338.612776 L861.820053,377.661102 L872.903548,377.661102 Z M924.71933,377.661102 L924.71933,366.328896 L908.84978,366.328896 L908.84978,336.155189 L919.933275,336.155189 L919.933275,325.369113 L908.84978,325.369113 L908.84978,297.926058 L924.71933,297.926058 L924.71933,286.730384 L897.892234,286.730384 L897.892234,377.661102 L924.71933,377.661102 Z M981.469211,377.661102 L970.259767,286.730384 L958.168681,286.730384 L946.959237,377.661102 L957.035142,377.661102 L958.924374,360.048396 L968.622432,360.048396 L970.133818,377.661102 L981.469211,377.661102 Z M967.488893,348.989254 L960.183862,348.989254 L964.214224,309.940928 L967.488893,348.989254 Z M1023.6245,328.099765 C1017.32706,317.723287 1014.17834,312.944645 1014.17834,302.841232 C1014.17834,298.608721 1016.44542,296.287667 1019.59414,296.287667 C1022.8688,296.287667 1024.63209,299.018319 1024.63209,303.523895 L1024.63209,314.309971 L1034.58204,314.309971 L1034.58204,303.933493 C1034.58204,292.464754 1028.66245,285.365058 1019.59414,285.365058 C1008.63659,285.365058 1003.47269,294.103145 1003.47269,305.571884 C1003.47269,316.084895 1010.14798,328.37283 1015.56377,336.701319 C1021.35742,345.985537 1024.38019,352.812167 1024.38019,361.277189 C1024.38019,365.782765 1022.49096,368.513417 1018.58655,368.513417 C1014.93403,368.513417 1013.0448,365.646233 1013.0448,360.867591 L1013.0448,350.627646 L1002.96889,350.627646 L1002.96889,360.457993 C1002.96889,371.926733 1009.01444,379.026428 1018.96439,379.026428 C1027.02512,379.026428 1035.08584,373.428591 1035.08584,359.092667 C1035.08584,348.579656 1030.04789,338.339711 1023.6245,328.099765 Z M1088.64944,298.335656 L1088.64944,286.730384 L1057.16223,286.730384 L1057.16223,298.335656 L1067.61599,298.335656 L1067.61599,377.661102 L1078.57353,377.661102 L1078.57353,298.335656 L1088.64944,298.335656 Z M1138.82788,377.661102 L1138.82788,366.328896 L1122.95833,366.328896 L1122.95833,336.155189 L1134.04183,336.155189 L1134.04183,325.369113 L1122.95833,325.369113 L1122.95833,297.926058 L1138.82788,297.926058 L1138.82788,286.730384 L1112.00079,286.730384 L1112.00079,377.661102 L1138.82788,377.661102 Z M1195.69266,378.0707 L1195.69266,374.657385 C1194.43318,372.33633 1193.80343,369.469146 1193.80343,365.373167 L1193.80343,345.166341 C1193.80343,339.841569 1191.4104,335.745591 1187.12815,333.561069 C1191.4104,331.376548 1193.55153,327.417102 1193.55153,321.955797 L1193.55153,302.841232 C1193.55153,290.962895 1186.87625,286.730384 1179.69717,286.730384 L1162.69408,286.730384 L1162.69408,377.661102 L1173.77757,377.661102 L1173.77757,338.749308 L1178.68958,338.749308 C1181.5864,338.749308 1183.09778,341.206895 1183.09778,344.347145 L1183.09778,366.05583 C1183.09778,372.609396 1184.73512,378.0707 1188.76548,378.0707 L1195.69266,378.0707 Z M1182.59399,322.774993 C1182.59399,326.597906 1181.20855,328.37283 1178.56363,328.37283 L1173.77757,328.37283 L1173.77757,297.789525 L1179.06742,297.789525 C1181.46045,297.789525 1182.59399,299.427917 1182.59399,302.977765 L1182.59399,322.774993 Z M1253.05019,377.661102 L1253.05019,286.730384 L1243.22619,286.730384 L1243.22619,344.07408 L1240.07747,330.420819 L1229.49777,286.730384 L1219.16996,286.730384 L1219.16996,377.661102 L1229.11992,377.661102 L1229.11992,320.590471 L1232.52054,334.1072 L1244.35973,377.661102 L1253.05019,377.661102 Z M658.862184,517.234909 L658.862184,426.304191 L644.126174,426.304191 L638.332529,472.31568 L636.443296,490.474518 L634.554064,472.31568 L628.63447,426.304191 L613.646562,426.304191 L613.646562,517.234909 L623.34462,517.234909 L623.34462,448.149409 L625.107904,466.444778 L631.405344,517.234909 L639.843914,517.234909 L646.519201,466.444778 L648.408433,448.149409 L648.408433,517.234909 L658.862184,517.234909 Z M716.495916,517.234909 L705.286473,426.304191 L693.195387,426.304191 L681.985943,517.234909 L692.061848,517.234909 L693.95108,499.622202 L703.649138,499.622202 L705.160524,517.234909 L716.495916,517.234909 Z M702.515599,488.563061 L695.210568,488.563061 L699.24093,449.514735 L702.515599,488.563061 Z M770.956623,517.234909 L770.956623,472.31568 L755.213022,472.31568 L755.213022,482.146028 L760.125025,482.146028 L760.125025,501.670192 C760.125025,505.083507 758.361742,507.677626 754.835175,507.677626 C751.434557,507.677626 749.545325,505.083507 749.545325,501.670192 L749.545325,442.278506 C749.545325,439.138256 751.434557,436.544137 754.709226,436.544137 C758.235793,436.544137 759.999076,439.001724 759.999076,442.141974 L759.999076,457.843224 L770.20093,457.843224 L770.20093,443.234235 C770.20093,432.857756 764.281336,424.938865 754.709226,424.938865 C745.137117,424.938865 738.46183,432.994289 738.46183,443.234235 L738.46183,500.304866 C738.46183,511.773605 744.633322,518.600235 752.945943,518.600235 C757.4801,518.600235 761.384513,516.415713 763.273745,512.183203 L765.037029,517.234909 L770.956623,517.234909 Z M828.060044,517.234909 L816.8506,426.304191 L804.759515,426.304191 L793.550071,517.234909 L803.625975,517.234909 L805.515208,499.622202 L815.213266,499.622202 L816.724651,517.234909 L828.060044,517.234909 Z M814.079726,488.563061 L806.774696,488.563061 L810.805057,449.514735 L814.079726,488.563061 Z M880.127723,431.219365 L880.127723,426.304191 L850.781651,426.304191 L850.781651,437.77293 L868.036637,437.77293 L849.77406,512.319735 L849.77406,517.234909 L879.246081,517.234909 L879.246081,505.902703 L861.991095,505.902703 L880.127723,431.219365 Z M903.642586,517.234909 L914.726081,517.234909 L914.726081,426.304191 L903.642586,426.304191 L903.642586,517.234909 Z M973.404968,517.234909 L973.404968,426.304191 L963.580961,426.304191 L963.580961,483.647887 L960.432241,469.994626 L949.852541,426.304191 L939.524739,426.304191 L939.524739,517.234909 L949.474694,517.234909 L949.474694,460.164278 L952.875312,473.681007 L964.7145,517.234909 L973.404968,517.234909 Z M1025.16772,517.234909 L1025.16772,505.902703 L1009.29817,505.902703 L1009.29817,475.728996 L1020.38166,475.728996 L1020.38166,464.94292 L1009.29817,464.94292 L1009.29817,437.499865 L1025.16772,437.499865 L1025.16772,426.304191 L998.340622,426.304191 L998.340622,517.234909 L1025.16772,517.234909 Z" id="Fill-4" fill="#CC0000"></path>
    </g>
</svg>
